<?xml version="1.0" standalone="no"?>
<!DOCTYPE svg PUBLIC "-//W3C//DTD SVG 20010904//EN"
 "http://www.w3.org/TR/2001/REC-SVG-20010904/DTD/svg10.dtd">
<svg version="1.0" xmlns="http://www.w3.org/2000/svg"
 width="226.000000pt" height="223.000000pt" viewBox="0 0 226.000000 223.000000"
 preserveAspectRatio="xMidYMid meet">

<g transform="translate(0.000000,223.000000) scale(0.100000,-0.100000)"
fill="#000000" stroke="none">
<path d="M0 1115 l0 -1115 1130 0 1130 0 0 1115 0 1115 -1130 0 -1130 0 0
-1115z m1372 1011 c416 -105 721 -438 788 -858 18 -109 8 -311 -19 -415 -99
-380 -381 -662 -766 -765 -67 -18 -108 -22 -250 -22 -154 -1 -179 2 -265 26
-455 127 -760 505 -784 973 -27 537 381 1016 924 1085 102 13 267 3 372 -24z"/>
<path d="M797 1703 c-4 -3 -7 -107 -7 -230 0 -190 -2 -225 -15 -229 -9 -4 -15
-19 -15 -40 l0 -34 365 0 365 0 0 34 c0 21 -6 36 -15 40 -12 4 -15 43 -17 233
l-3 228 -326 3 c-179 1 -328 -1 -332 -5z m643 -223 l0 -210 -315 0 -315 0 0
210 0 210 315 0 315 0 0 -210z m-137 -237 c-84 -2 -143 -8 -143 -13 0 -13 -63
-13 -76 0 -5 5 -70 11 -144 13 -74 1 9 3 185 3 176 0 256 -2 178 -3z m-233
-23 c0 -5 25 -10 55 -10 31 0 55 4 55 10 0 7 51 10 147 8 131 -3 148 -5 151
-20 3 -17 -19 -18 -352 -18 -349 0 -356 0 -356 20 0 19 7 20 150 20 93 0 150
-4 150 -10z"/>
<path d="M910 1485 l0 -145 210 0 210 0 0 145 0 145 -210 0 -210 0 0 -145z
m405 125 c-4 -6 -80 -10 -195 -10 -115 0 -191 4 -195 10 -4 7 63 10 195 10
132 0 199 -3 195 -10z m5 -135 l0 -115 -200 0 -200 0 0 115 0 115 200 0 200 0
0 -115z"/>
<path d="M640 1027 c-19 -6 -51 -28 -73 -50 -32 -32 -38 -44 -35 -75 2 -29 8
-38 24 -40 18 -3 21 1 17 21 -7 36 22 94 59 117 42 26 109 27 131 2 26 -29 21
-70 -12 -103 -52 -52 -59 -36 -34 70 6 23 4 24 -28 17 -18 -3 -36 -10 -40 -14
-5 -6 -54 -229 -67 -305 -4 -27 -3 -28 28 -25 38 3 38 5 65 131 15 69 19 77
40 77 35 0 55 -26 55 -71 0 -66 -27 -103 -68 -94 -20 5 -23 2 -20 -16 4 -29
35 -39 78 -25 26 8 41 22 58 56 31 63 29 114 -6 150 l-28 28 23 26 c53 62 5
137 -85 135 -26 -1 -63 -6 -82 -12z"/>
<path d="M1015 1031 c-102 -25 -179 -123 -133 -169 19 -19 37 -14 31 7 -3 11
0 35 6 54 12 35 56 85 67 74 3 -3 -10 -81 -30 -172 -20 -92 -36 -172 -36 -180
0 -7 15 -16 33 -19 17 -4 65 -31 106 -61 80 -60 111 -67 135 -33 24 35 20 48
-16 48 -27 0 -166 55 -183 72 -3 3 13 87 35 187 22 100 40 186 40 191 0 11
-12 11 -55 1z"/>
<path d="M1201 1027 c-19 -6 -55 -30 -79 -53 -37 -36 -43 -47 -40 -75 4 -45
38 -55 38 -11 0 94 150 172 211 111 19 -19 21 -29 16 -93 -11 -147 -98 -279
-137 -207 -22 43 1 171 46 249 l25 42 -23 0 c-34 -1 -64 -28 -94 -90 -24 -46
-28 -68 -29 -137 0 -103 11 -118 89 -117 43 0 61 6 90 28 106 80 134 305 45
351 -32 17 -108 18 -158 2z"/>
<path d="M1543 1021 c-64 -29 -97 -87 -101 -176 -4 -65 -2 -74 23 -103 30 -36
76 -49 119 -32 16 6 30 9 31 8 1 -2 -6 -34 -15 -72 -15 -62 -37 -96 -61 -96
-13 0 -39 31 -39 45 0 22 30 46 51 40 14 -5 19 -1 19 14 0 18 -6 21 -39 21
-47 0 -65 -19 -65 -67 0 -51 34 -77 89 -69 65 11 91 46 119 161 43 179 43 167
4 163 -31 -3 -33 -6 -42 -51 -10 -57 -39 -78 -81 -59 -50 23 -57 110 -15 191
40 79 121 109 128 48 2 -16 -2 -35 -9 -43 -11 -14 -8 -15 22 -12 30 3 34 7 37
34 6 67 -85 95 -175 55z"/>
</g>
</svg>
